<svg width="215" height="179" viewBox="0 0 215 179" fill="none" xmlns="http://www.w3.org/2000/svg">
<g opacity="0.15">
<path d="M-4.12036 109.647C-4.35804 110.459 -4.43066 111.309 -4.33395 112.15C-4.23724 112.99 -3.97314 113.802 -3.55727 114.538C-3.1414 115.274 -2.5822 115.92 -1.91269 116.436C-1.24317 116.953 -0.476922 117.33 0.340779 117.545C37.7493 127.236 71.8222 146.908 98.9188 174.459C99.5142 175.06 100.224 175.535 101.006 175.856C101.788 176.178 102.627 176.339 103.472 176.331C104.318 176.323 105.153 176.146 105.929 175.81C106.705 175.474 107.405 174.985 107.989 174.374L167.547 111.061C168.35 110.217 168.901 109.165 169.138 108.024C169.375 106.884 169.289 105.699 168.889 104.605C168.489 103.511 167.79 102.551 166.873 101.832C165.956 101.114 164.856 100.666 163.698 100.539L120.674 95.9967C119.118 95.8267 117.681 95.0863 116.639 93.9184C115.597 92.7504 115.025 91.2379 115.033 89.6729L115.845 42.3297C115.865 41.2134 115.586 40.1121 115.037 39.1402C114.488 38.1683 113.688 37.3613 112.721 36.803C111.754 36.2448 110.655 35.9558 109.539 35.966C108.423 35.9761 107.329 36.2852 106.373 36.8609L65.7782 61.2354C64.427 62.025 62.8311 62.2859 61.2988 61.9677C59.7664 61.6495 58.4064 60.7747 57.4813 59.5124L32.0353 24.5236C31.3466 23.5839 30.4089 22.8554 29.3281 22.4203C28.2474 21.9853 27.0665 21.8609 25.9188 22.0614C24.7711 22.2619 23.7023 22.7792 22.833 23.5549C21.9637 24.3305 21.3285 25.3338 20.9991 26.4513L-4.12036 109.647Z" stroke="#035946" stroke-width="10" stroke-linecap="round" stroke-linejoin="round"/>
<path d="M43.7158 106.323C59.0059 113.076 73.5236 121.458 87.017 131.323" stroke="#035946" stroke-width="10" stroke-linecap="round" stroke-linejoin="round"/>
</g>
</svg>
