<svg width="115" height="40" viewBox="0 0 115 40" fill="none" xmlns="http://www.w3.org/2000/svg">
<path d="M18.3414 32.2325V37.7968H13.5683V32.2325C13.5664 30.4675 12.8645 28.7753 11.6166 27.5271C10.3687 26.2789 8.67675 25.5765 6.91175 25.5741H0V20.801H6.91175C8.67718 20.801 10.3703 20.0997 11.6187 18.8514C12.867 17.603 13.5683 15.9099 13.5683 14.1445C13.5683 12.379 12.867 10.6859 11.6187 9.43756C10.3703 8.18921 8.67718 7.4879 6.91175 7.4879H0V2.71484H6.91175C9.29686 2.71437 11.6223 3.46043 13.562 4.8484C15.5017 6.23636 16.9583 8.19662 17.7276 10.4543C18.4969 12.7119 18.5402 15.1537 17.8516 17.4373C17.163 19.7208 15.7769 21.7316 13.8877 23.1876C15.273 24.2537 16.3949 25.6236 17.1671 27.1918C17.9392 28.76 18.341 30.4845 18.3414 32.2325Z" fill="#035946"/>
<path d="M5.6233 0H4.24646V40H5.6233V0Z" fill="#539074"/>
<path d="M9.57753 0H8.20068V40H9.57753V0Z" fill="#539074"/>
<path d="M27.3738 23.072C31.7522 23.072 34.9391 26.314 34.9391 30.6373V31.5754H22.5108C22.5066 32.1656 22.6356 32.7491 22.8883 33.2825C23.141 33.8159 23.5109 34.2853 23.9703 34.6558C24.9157 35.4397 26.0778 35.8454 27.4822 35.8454C29.5015 35.8454 31.1537 34.9275 32.4278 33.1156L34.4269 34.6962C32.8316 37.046 30.5075 38.2081 27.4822 38.2081C22.7807 38.2081 19.7278 35.2084 19.7278 30.6961C19.7278 26.1837 22.9165 23.072 27.3738 23.072ZM32.1469 29.4477C31.9853 27.1787 29.8779 25.4218 27.3922 25.4218C24.7175 25.4218 22.7183 27.1787 22.5549 29.4477H32.1469Z" fill="#035946"/>
<path d="M42.9374 29.3945C45.8545 28.9355 46.8274 28.4215 46.8274 27.4486C46.8274 26.2333 45.5314 25.4494 43.5579 25.4494C41.2888 25.4494 39.7027 26.639 39.2897 28.5831L36.6406 28.0158C36.7623 27.2945 37.0264 26.6047 37.4175 25.9866C37.8087 25.3685 38.3191 24.8345 38.9188 24.4158C40.1892 23.5236 41.7294 23.0647 43.5395 23.0647C47.3488 23.0647 49.7812 24.9831 49.7812 28.036V37.7896H47.1524V36.0602H47.0991C46.1518 37.3857 44.1802 38.1953 41.9369 38.1953C38.6673 38.1953 36.6406 36.5431 36.6406 33.9271C36.6406 31.3661 38.3975 30.0701 42.9374 29.3945ZM47.044 30.0701H46.9963C46.6438 30.7181 45.6984 31.0963 43.4294 31.502C40.5105 32.016 39.376 32.664 39.376 33.8518C39.376 35.1772 40.3214 35.7702 42.4564 35.7702C44.8888 35.7702 47.0459 34.3383 47.0459 32.6916L47.044 30.0701Z" fill="#035946"/>
<path d="M52.9077 18.073H55.6908V37.7967H52.9077V18.073Z" fill="#035946"/>
<path d="M66.2806 23.072C70.7673 22.9912 74.2516 26.3947 74.1745 30.6372C74.2553 34.8798 70.771 38.2833 66.2806 38.2025C61.7683 38.2025 58.418 34.933 58.418 30.6372C58.418 26.3415 61.7683 23.072 66.2806 23.072ZM66.2806 25.5301C63.3085 25.5301 61.201 27.5843 61.201 30.6372C61.201 33.6902 63.3085 35.7444 66.2806 35.7444C69.2528 35.7444 71.3878 33.6902 71.3878 30.6372C71.3878 27.5843 69.2803 25.5301 66.2806 25.5301Z" fill="#035946"/>
<path d="M94.5995 23.4758L93.6027 26.9491L94.605 23.4758H94.5995Z" fill="#000E0A"/>
<path d="M99.6521 23.4777H102.354V25.0712H102.409C103.511 23.8008 105.435 23.072 107.408 23.072C111.487 23.072 114.243 25.6109 114.243 29.3137V37.7969H111.46V29.7726C111.46 27.1511 109.786 25.5301 107.164 25.5301C105.76 25.5301 104.625 25.9359 103.733 26.7454C102.869 27.5299 102.437 28.5567 102.437 29.8259V37.7969H99.6521V23.4777Z" fill="#035946"/>
<path d="M99.7089 21.8455L98.009 21.4766L96.4577 26.6902L93.168 37.7967H90.5465L85.7367 26.3946H85.6835L80.8737 37.7967H78.2797L74.0372 23.4757H76.8478L79.9007 34.1233H79.954L84.4131 23.4757H87.0346L91.4919 34.1233H91.547L92.3272 31.4008L93.6031 26.949L94.6054 23.4757L95.3471 20.8983L93.4066 20.4779L97.7428 15.7048L99.7089 21.8455Z" fill="#539074"/>
</svg>
