<svg width="96" height="96" viewBox="0 0 96 96" fill="none" xmlns="http://www.w3.org/2000/svg">
<mask id="mask0_448_8479" style="mask-type:alpha" maskUnits="userSpaceOnUse" x="0" y="0" width="96" height="96">
<rect width="96" height="96" rx="8" fill="#E0E0E0"/>
</mask>
<g mask="url(#mask0_448_8479)">
<rect width="96" height="96" rx="8" fill="#99CAAB"/>
<path d="M24.9979 52.5739C26.4996 51.7149 28.1235 51.0293 29.8286 50.5344C33.033 49.6089 36.3904 49.1472 39.7668 49.1676C45.6932 49.1676 50.9922 50.4919 54.548 52.5775C57.2077 54.1355 58.8899 56.1184 59.1261 58.2961C59.1465 58.1155 59.1587 57.942 59.1587 57.7543C59.1587 55.3677 57.4236 53.1865 54.548 51.501C50.9922 49.4154 45.6932 48.0911 39.7668 48.0911C33.8405 48.0911 28.5456 49.4154 24.9898 51.501C22.1142 53.1865 20.375 55.3677 20.375 57.7543C20.375 57.9349 20.375 58.1084 20.4076 58.2961C20.656 56.1149 22.3382 54.139 24.9979 52.5739Z" fill="#539074"/>
<path d="M39.7629 67.4178C29.4214 67.4178 20.9698 63.3846 20.4037 58.2999C20.4037 58.4769 20.3711 58.654 20.3711 58.831C20.3833 64.1672 29.0671 68.5084 39.7629 68.5084C50.4588 68.5084 59.1548 64.1814 59.1548 58.8452C59.1548 58.6681 59.1548 58.4911 59.1222 58.314C58.5683 63.3846 50.1207 67.4178 39.7629 67.4178Z" fill="#FEA400"/>
<path d="M39.7629 70.5162C25.6213 70.5162 14.1597 64.8011 14.1597 57.7689V61.9295C14.1597 68.9759 25.6213 74.6768 39.7629 74.6768C53.9046 74.6768 65.3703 68.9653 65.3703 61.9295V57.7582C65.3784 64.8047 53.9168 70.5162 39.7629 70.5162Z" fill="#539074"/>
<path d="M54.5569 52.5741C51.0011 50.4885 45.7021 49.1642 39.7758 49.1642C36.3993 49.1439 33.0419 49.6056 29.8375 50.531C28.1293 51.0265 26.5027 51.7133 24.9987 52.5741C22.339 54.1321 20.6568 56.1151 20.4165 58.2927C20.9827 63.3775 29.4343 67.4106 39.7758 67.4106C50.1173 67.4106 58.5689 63.3775 59.135 58.2927C58.9069 56.1151 57.2166 54.1392 54.5569 52.5741ZM32.929 51.1153H32.8923H32.929ZM38.2239 59.44H38.3054H38.2239ZM41.9549 63.4342L42.24 63.459L42.5292 63.4837C42.3214 63.4802 42.13 63.4625 41.9386 63.4412L41.9549 63.4342ZM50.4268 60.5412C50.4647 60.4687 50.4974 60.3942 50.5246 60.3181C50.4924 60.3969 50.4543 60.4738 50.4105 60.5483L50.4268 60.5412ZM50.5653 60.1694C50.574 60.1427 50.5808 60.1155 50.5857 60.088C50.5759 60.1182 50.5636 60.1478 50.549 60.1765L50.5653 60.1694ZM50.5979 60.0207C50.6061 59.9453 50.6061 59.8695 50.5979 59.7941C50.6012 59.8723 50.5958 59.9505 50.5816 60.0278L50.5979 60.0207Z" fill="#F5F5F5"/>
<path d="M49.3428 62.0569C50.3692 61.4018 50.8784 60.7219 50.8947 60.0173C50.8992 59.8795 50.8855 59.7417 50.8539 59.6065C50.6394 58.7567 49.8153 57.973 48.3816 57.2554C47.4581 56.7898 46.4497 56.4652 45.4001 56.2958C44.3855 56.1265 43.3473 56.0919 42.3209 56.1931C41.0625 56.3451 39.8143 56.5555 38.5818 56.8234H38.5411L38.4759 56.919L38.2926 56.8729C37.4302 57.0664 36.5496 57.192 35.6614 57.2483C35.0889 57.2564 34.5249 57.1265 34.0322 56.8729L33.9222 56.8092C33.7392 56.7285 33.5789 56.6137 33.4529 56.4729C33.3268 56.3321 33.2381 56.1688 33.1931 55.9948C33.1442 55.6655 33.3683 55.3716 33.8693 55.1237C34.8685 54.6209 36.4027 54.6492 38.4718 55.2087L39.7589 53.3957C36.8562 52.5247 34.2766 52.5247 32.0201 53.3957L30.1261 52.4468L28.3584 53.3108L30.2524 54.2597C29.7808 54.5607 29.4006 54.9568 29.1445 55.4141C29.0533 55.5977 29.0035 55.7948 28.9979 55.9948C28.9983 56.1946 29.0411 56.3927 29.1241 56.579C29.469 57.3698 30.2429 58.0662 31.4458 58.6682C32.3521 59.1228 33.339 59.4435 34.3662 59.6172C35.3347 59.7885 36.3271 59.8339 37.311 59.7517C38.4743 59.6286 39.6268 59.4382 40.7609 59.1816C41.8087 58.9316 42.8801 58.7633 43.9623 58.6788C44.5766 58.6691 45.1819 58.8089 45.7096 59.0825C45.9321 59.1686 46.1295 59.2969 46.2874 59.4581C46.4453 59.6192 46.5596 59.8091 46.622 60.0137C46.679 60.3253 46.4509 60.6263 45.9377 60.9238C45.8685 60.9663 45.7952 61.0052 45.7178 61.0442C44.2841 61.7523 42.5476 61.7276 40.5083 60.9698L38.5899 62.7615C41.9869 63.9135 44.9846 63.9737 47.5833 62.9421L50.0271 64.1673L50.1004 64.1318L51.3631 63.498L51.807 63.2749L50.5851 62.6588L49.3428 62.0569Z" fill="#539074"/>
<path d="M28.354 52.1562V53.3106L31.7143 53.8311L28.9975 54.7695L28.9935 55.9946L48.0758 58.8946L45.2898 60.8988L38.5815 61.6247V62.7755L48.0758 62.6409L51.7945 63.2889V62.1381L48.9026 61.692L50.8943 59.9569V58.7742L42.3205 56.0583L38.5815 55.6582L38.2882 55.7149L35.1723 56.5435L31.6817 55.1519L36.0358 54.2064L39.7749 53.3849V52.2341L31.5391 52.7724L28.354 52.1562Z" fill="#539074"/>
<path d="M39.7628 44.9999C25.6211 44.9999 14.1595 50.7115 14.1595 57.7473C14.1595 64.7902 25.6211 70.4946 39.7628 70.4946C53.9045 70.4946 65.3661 64.7831 65.3702 57.7473C65.3824 50.7115 53.9167 44.9999 39.7628 44.9999ZM39.7628 67.4176C29.0547 67.4176 20.371 63.0941 20.371 57.7579C20.371 55.3713 22.1102 53.1901 24.9857 51.5046C28.5415 49.419 33.8406 48.0947 39.7628 48.0947C45.685 48.0947 50.9882 49.419 54.544 51.5046C57.4195 53.1901 59.1547 55.3713 59.1547 57.7579C59.1669 63.0941 50.4872 67.4176 39.7628 67.4176Z" fill="#72AA8B"/>
<path d="M49.3428 60.9057C50.3692 60.2507 50.8784 59.5673 50.8947 58.8662C50.8993 58.7283 50.8856 58.5905 50.8539 58.4554C50.6394 57.6056 49.8153 56.8219 48.3816 56.1042C47.4589 55.6371 46.4502 55.3125 45.4001 55.1446C44.3855 54.9754 43.3473 54.9408 42.3209 55.042C41.0628 55.1879 39.8146 55.3923 38.5818 55.6545H38.5533L38.4881 55.7466L38.3048 55.7041C37.442 55.8957 36.5616 56.0213 35.6736 56.0795C35.1011 56.0876 34.5372 55.9577 34.0444 55.7041L33.9344 55.6404C33.7517 55.5593 33.5917 55.4443 33.4658 55.3036C33.3398 55.1629 33.2509 54.9998 33.2053 54.826C33.1565 54.4931 33.3805 54.2028 33.8815 53.9514C34.8807 53.4485 36.4149 53.4769 38.484 54.0363L39.763 52.2198C36.8602 51.3488 34.2806 51.3488 32.0242 52.2198L30.1302 51.2673L28.3584 52.1561L30.2524 53.1086C29.78 53.4088 29.3996 53.8052 29.1445 54.263C29.0529 54.4465 29.0031 54.6437 28.9979 54.8437C28.9982 55.0447 29.041 55.2439 29.1241 55.4315C29.469 56.2223 30.2429 56.9175 31.4458 57.5171C32.3519 57.9728 33.3388 58.2947 34.3662 58.4696C35.3349 58.6398 36.3273 58.684 37.311 58.6006C38.4745 58.4807 39.6272 58.2914 40.7609 58.034C41.8087 57.784 42.8801 57.6158 43.9623 57.5312C44.5763 57.5201 45.1816 57.6587 45.7096 57.9314C45.9326 58.0178 46.1303 58.1467 46.2882 58.3085C46.4461 58.4703 46.5602 58.6609 46.622 58.8662C46.679 59.1742 46.4509 59.4787 45.9377 59.7762L45.7178 59.8966C44.2841 60.6048 42.5476 60.5788 40.5083 59.8187L38.5899 61.6139C41.9869 62.7612 44.9846 62.8214 47.5833 61.7945L50.0271 63.0197L50.1004 62.9807L51.3631 62.3504L51.807 62.1274L50.5851 61.5077L49.3428 60.9057Z" fill="#72AA8B"/>
<path d="M64.2018 56.3313C65.8849 55.7819 67.6428 55.4249 69.4317 55.269C72.7917 54.9713 76.1851 55.1567 79.4758 55.8178C85.2596 56.9403 90.0984 59.2384 93.0473 61.9472C95.2508 63.9726 96.3953 66.2282 96.0817 68.3952C96.1428 68.2253 96.2039 68.0411 96.2487 67.8712C96.8474 65.5448 95.6988 63.0874 93.3161 60.8991C90.3672 58.1867 85.5284 55.8887 79.7487 54.7662C73.969 53.6437 68.4623 53.9305 64.4666 55.2938C61.2407 56.3915 58.9965 58.1938 58.3977 60.5202C58.3529 60.6972 58.3203 60.8743 58.2959 61.0549C59.0861 58.9657 61.2244 57.3511 64.2018 56.3313Z" fill="#539074"/>
<path d="M74.9137 73.6147C64.8166 71.653 57.5828 66.115 58.3078 61.0444C58.2417 61.214 58.186 61.3866 58.1408 61.5614C56.8008 66.7665 64.1893 72.6338 74.6408 74.6628C85.0923 76.6917 94.6518 74.1175 95.9918 68.9088C96.0366 68.7353 96.0651 68.5547 96.0936 68.3812C94.2648 73.2393 85.0068 75.5905 74.9137 73.6147Z" fill="#FEA400"/>
<path d="M74.1362 76.6522C60.3367 73.9717 50.5817 66.2242 52.3494 59.3477L51.3026 63.4127C49.5349 70.2892 59.2899 78.0367 73.0894 80.7172C86.889 83.3977 99.5114 80.009 101.279 73.1219L102.326 69.0569C100.554 75.9157 87.9357 79.3186 74.1362 76.6522Z" fill="#539074"/>
<path d="M93.059 61.9364C90.1101 59.2276 85.2713 56.9296 79.4875 55.8071C76.1969 55.1459 72.8034 54.9605 69.4434 55.2582C67.6546 55.4141 65.8966 55.7712 64.2136 56.3205C61.228 57.3403 59.0896 58.955 58.3117 61.0335C57.5867 66.1041 64.8286 71.6563 74.9176 73.6038C85.0065 75.5513 94.2687 73.2285 96.0975 68.3738C96.407 66.2174 95.2625 63.9618 93.059 61.9364ZM78.0172 70.1408L78.2941 70.2187L78.567 70.2966C78.3838 70.2541 78.2005 70.201 78.0172 70.1443V70.1408ZM87.0105 68.9262C87.0646 68.8631 87.1136 68.7969 87.1571 68.7279C87.1136 68.7969 87.0646 68.8631 87.0105 68.9262ZM87.2386 68.5721C87.2386 68.5473 87.2671 68.5226 87.2793 68.4942C87.2712 68.5403 87.2549 68.5651 87.2427 68.5898L87.2386 68.5721ZM87.3078 68.434C87.3365 68.362 87.361 68.2887 87.3811 68.2145C87.3631 68.2946 87.3399 68.3738 87.3119 68.4517L87.3078 68.434Z" fill="#F5F5F5"/>
<path d="M85.5889 70.1974C86.7579 69.7512 87.4299 69.1847 87.6254 68.5013C87.6637 68.3667 87.6855 68.229 87.6906 68.0905C87.6906 67.2194 87.0824 66.2988 85.8659 65.3286C85.0827 64.6983 84.1801 64.1904 83.198 63.8272C82.2513 63.4691 81.2473 63.2387 80.2206 63.1438C78.9558 63.0475 77.6858 63.0109 76.4164 63.0341H76.3879L76.2983 63.112L76.1313 63.0341C75.2405 63.0602 74.3488 63.0152 73.4675 62.8995C72.9088 62.7988 72.393 62.566 71.9767 62.2267L71.8871 62.1453C71.7282 62.032 71.6004 61.8893 71.513 61.7275C71.4257 61.5658 71.3809 61.3892 71.3821 61.2105C71.4147 60.8776 71.7038 60.6369 72.2578 60.5023C73.3575 60.2001 74.851 60.5188 76.7382 61.4584L78.4488 59.9358C75.8339 58.5335 73.3154 58.0378 70.8933 58.4486L69.2844 57.1597L67.3253 57.6944L68.9342 58.9797C68.3989 59.1841 67.9292 59.4989 67.5656 59.8968C67.4282 60.0578 67.3286 60.2406 67.2724 60.435C67.2191 60.63 67.2107 60.8322 67.2479 61.0299C67.3905 61.8656 67.9688 62.6906 68.9912 63.5086C69.76 64.1265 70.6425 64.628 71.602 64.9922C72.5075 65.3439 73.4686 65.5754 74.4532 65.6791C75.6195 65.7815 76.7926 65.8146 77.9641 65.7783C79.0521 65.735 80.1424 65.7741 81.2226 65.8951C81.8227 65.9973 82.3783 66.2425 82.8274 66.6033C83.0235 66.7302 83.1842 66.8937 83.2978 67.0819C83.4113 67.2701 83.4746 67.478 83.4831 67.6904C83.4831 68.002 83.1614 68.2534 82.5871 68.4481L82.3427 68.5225C80.7651 68.9498 79.0774 68.5957 77.2799 67.4602L74.9093 68.8624C77.937 70.6258 80.8479 71.2526 83.642 70.7427L85.7152 72.3998L85.7966 72.3786L87.1856 71.9997L87.6743 71.8687L86.6275 71.0295L85.5889 70.1974Z" fill="#539074"/>
<path d="M67.5941 56.5577L67.3049 57.6802L70.4534 58.8275L67.5656 59.2276L67.252 60.4209L85.149 66.8725L81.9272 68.2995L75.1985 67.7329L74.9093 68.8589L84.2081 70.5232L87.6743 71.8652L87.9635 70.7392L85.2549 69.7583L87.6336 68.4411L87.9309 67.2868L80.245 63.0093L76.6974 61.9081L76.396 61.9116L73.1457 62.1312L70.0909 60.1093L74.5753 60.0101L78.4284 59.9216L78.7176 58.7956L70.5471 57.7617L67.5941 56.5577Z" fill="#539074"/>
<path d="M80.5346 51.7349C66.735 49.0544 54.1126 52.4431 52.349 59.3302C50.5813 66.2067 60.3363 73.9542 74.1358 76.6347C87.9353 79.3152 100.554 75.9265 102.325 69.0394C104.093 62.163 94.3423 54.4154 80.5346 51.7349ZM74.9138 73.6143C64.4582 71.5854 57.0737 65.718 58.4097 60.5129C59.0084 58.1865 61.2608 56.3842 64.4786 55.2865C68.4742 53.9232 73.9769 53.6364 79.7607 54.7589C85.5444 55.8813 90.3792 58.1794 93.3281 60.8918C95.7108 63.0801 96.8594 65.5375 96.2607 67.8638C94.9206 73.069 85.3815 75.6468 74.9138 73.6143Z" fill="#72AA8B"/>
<path d="M85.8783 69.075C87.0472 68.6253 87.7193 68.0587 87.9148 67.3753C87.9539 67.2422 87.9744 67.1055 87.9759 66.9681C87.9759 66.0971 87.369 65.1752 86.1552 64.2027C85.3708 63.5738 84.4685 63.066 83.4874 62.7013C82.5398 62.3459 81.5361 62.1167 80.51 62.0215C79.2452 61.9238 77.9752 61.886 76.7057 61.9082H76.6731L76.5876 61.9896L76.4206 61.9117C75.5298 61.936 74.6383 61.891 73.7568 61.7771C73.1987 61.6751 72.6833 61.4424 72.2661 61.1044L72.1765 61.0194C72.0179 60.9066 71.8902 60.7645 71.8029 60.6034C71.7155 60.4423 71.6706 60.2662 71.6714 60.0881C71.704 59.7553 71.9932 59.5145 72.5471 59.3622C73.6333 59.0601 75.1267 59.3787 77.0275 60.3183L78.7382 58.7957C76.1233 57.3982 73.6048 56.9025 71.1826 57.3085L69.5534 56.0231L67.5943 56.5578L69.2031 57.8432C68.6667 58.0474 68.1956 58.3622 67.8305 58.7603C67.696 58.9222 67.5979 59.1049 67.5413 59.2985C67.4881 59.4946 67.4798 59.698 67.5169 59.8969C67.6594 60.7326 68.2378 61.5576 69.2602 62.3756C70.0283 62.9933 70.911 63.4938 71.871 63.8557C72.7759 64.2129 73.7367 64.4516 74.7221 64.5638C75.8886 64.6644 77.0616 64.6976 78.2331 64.663C79.3211 64.616 80.4117 64.6551 81.4916 64.7798C82.0916 64.8821 82.6472 65.1272 83.0963 65.488C83.2919 65.6145 83.4524 65.7775 83.5659 65.965C83.6794 66.1525 83.743 66.3598 83.7521 66.5716C83.7317 66.8832 83.4303 67.1381 82.856 67.3293C82.7764 67.3583 82.6948 67.3832 82.6117 67.4037C81.0313 67.8357 79.3437 67.4816 77.5488 66.3414L75.1987 67.733C78.2263 69.5011 81.1372 70.129 83.9313 69.6168L86.0045 71.2739L86.086 71.2527L87.4749 70.8738L87.9637 70.7392L86.9169 69.9036L85.8783 69.075Z" fill="#72AA8B"/>
<path d="M26.2274 76.7516C27.7291 75.8925 29.3529 75.2069 31.0581 74.712C34.2625 73.7868 37.6199 73.3251 40.9963 73.3452C46.9226 73.3452 52.2217 74.6695 55.7775 76.7551C58.4372 78.3131 60.1194 80.296 60.3556 82.4737C60.3556 82.2931 60.3882 82.1196 60.3882 81.9319C60.3882 79.5453 58.6531 77.3641 55.7775 75.6787C52.2217 73.593 46.9226 72.2687 40.9963 72.2687C35.07 72.2687 29.775 73.593 26.2193 75.6787C23.3518 77.3606 21.6167 79.5418 21.6167 81.9284C21.6167 82.109 21.6167 82.2825 21.6452 82.4702C21.8855 80.296 23.5677 78.3096 26.2274 76.7516Z" fill="#539074"/>
<path d="M41.0045 91.5882C30.663 91.5882 22.2114 87.555 21.6452 82.4703C21.6452 82.6473 21.6167 82.8244 21.6167 83.005C21.6167 88.3411 30.2964 92.6646 41.0045 92.6646C51.7126 92.6646 60.3963 88.3411 60.3963 83.005C60.3957 82.8264 60.3849 82.6479 60.3637 82.4703C59.7976 87.555 51.3501 91.5882 41.0045 91.5882Z" fill="#FEA400"/>
<path d="M41.0056 94.6864C26.8639 94.6864 15.4023 88.9749 15.4023 81.939V86.1032C15.4023 93.1461 26.8639 98.8505 41.0056 98.8505C55.1473 98.8505 66.613 93.1354 66.613 86.1032V81.9284C66.6089 88.9749 55.1473 94.6864 41.0056 94.6864Z" fill="#539074"/>
<path d="M55.7856 76.7517C52.2298 74.6661 46.9307 73.3418 41.0044 73.3418C37.628 73.3217 34.2706 73.7834 31.0662 74.7086C29.361 75.2035 27.7372 75.8891 26.2355 76.7482C23.5758 78.3062 21.8936 80.2891 21.6533 82.4668C22.2195 87.5516 30.6711 91.5847 41.0126 91.5847C51.3541 91.5847 59.8057 87.5516 60.3719 82.4668C60.1275 80.2962 58.4453 78.3097 55.7856 76.7517ZM34.1576 75.2929H34.121H34.1576ZM39.4526 83.6176H39.5341H39.4526ZM43.1672 87.6295L43.4523 87.6543L43.7415 87.679C43.5501 87.6507 43.3587 87.6295 43.1672 87.6295ZM51.6392 84.7365C51.6771 84.664 51.7097 84.5895 51.737 84.5134C51.709 84.5835 51.6763 84.6521 51.6392 84.7188V84.7365ZM51.7777 84.3824C51.7868 84.3558 51.7936 84.3285 51.7981 84.301C51.7921 84.3166 51.7853 84.332 51.7777 84.347V84.3824ZM51.8103 84.2337C51.8185 84.1583 51.8185 84.0825 51.8103 84.0071C51.8161 84.0707 51.8161 84.1347 51.8103 84.1983V84.2337Z" fill="#F5F5F5"/>
<path d="M50.5726 86.2306C51.5991 85.572 52.1123 84.8921 52.1245 84.1875C52.129 84.0496 52.1153 83.9118 52.0837 83.7767C51.8665 82.9269 51.0424 82.1432 49.6114 81.4255C48.6871 80.9615 47.679 80.637 46.6299 80.4659C45.6152 80.2978 44.577 80.2644 43.5507 80.3668C42.2926 80.5127 41.0445 80.7172 39.8116 80.9794H39.7831L39.7179 81.0714L39.5346 81.0254C38.6723 81.2188 37.7917 81.3444 36.9034 81.4008C36.3307 81.4106 35.7662 81.2805 35.2742 81.0254L35.1683 80.9617C34.9844 80.8816 34.8232 80.767 34.6964 80.6262C34.5696 80.4853 34.4804 80.3217 34.4352 80.1473C34.3863 79.818 34.6103 79.5276 35.1113 79.2762C36.1106 78.7734 37.6447 78.8017 39.7139 79.3612L41.0009 77.5518C38.0955 76.6807 35.5159 76.6736 33.2621 77.5305L31.3682 76.5815L29.5801 77.4809L31.4741 78.4299C31.0025 78.7308 30.6223 79.127 30.3662 79.5843C30.2754 79.768 30.2256 79.9651 30.2195 80.165C30.2169 80.3659 30.2584 80.5654 30.3417 80.7528C30.692 81.5388 31.4659 82.2364 32.6634 82.8384C33.569 83.2943 34.5562 83.615 35.5838 83.7873C36.5523 83.9587 37.5447 84.0041 38.5286 83.9219C39.6922 83.8006 40.8448 83.6101 41.9785 83.3518C43.0263 83.1024 44.0977 82.9353 45.1799 82.8525C45.794 82.841 46.3994 82.9796 46.9272 83.2527C47.1502 83.3391 47.3479 83.468 47.5058 83.6298C47.6637 83.7916 47.7778 83.9822 47.8396 84.1875C47.8966 84.4955 47.6685 84.8 47.1553 85.0975L46.9354 85.2143C45.5071 85.9225 43.7706 85.8977 41.726 85.14L39.8075 86.9317C43.2045 88.0837 46.2022 88.145 48.8009 87.1158L51.2447 88.3374L51.318 88.302L52.5807 87.6682L53.0246 87.4451L51.8027 86.829L50.5726 86.2306Z" fill="#539074"/>
<path d="M29.5845 76.3303V77.4811L32.9447 78.0016L30.228 78.9399L30.2239 80.1651L49.3062 83.0686L46.5203 85.0693L39.8119 85.7952V86.946L49.3062 86.8114L53.0249 87.4594V86.3086L50.1331 85.8624L52.1248 84.1309V82.9483L43.5551 80.2288L39.8119 79.8287L39.5187 79.8854L36.4028 80.7139L32.9122 79.3223L37.2663 78.3769L41.0053 77.559V76.4046L32.7696 76.9428L29.5845 76.3303Z" fill="#539074"/>
<path d="M41.0056 69.1706C26.8639 69.1706 15.4023 74.8821 15.4023 81.9179C15.4023 88.9644 26.8639 94.6653 41.0056 94.6653C55.1473 94.6653 66.6089 88.9538 66.613 81.9179C66.613 74.8821 55.1473 69.1706 41.0056 69.1706ZM41.0056 91.5882C30.2975 91.5882 21.6178 87.2647 21.6178 81.9286C21.6178 79.542 23.353 77.3608 26.2285 75.6753C29.7843 73.5897 35.0834 72.2654 41.0056 72.2654C46.9278 72.2654 52.231 73.5897 55.7868 75.6753C58.6623 77.3608 60.3975 79.542 60.3975 81.9286C60.3975 87.2754 51.7178 91.5882 41.0056 91.5882Z" fill="#72AA8B"/>
<path d="M50.5726 85.0763C51.5991 84.4212 52.1123 83.7413 52.1245 83.0367C52.129 82.8989 52.1153 82.7611 52.0837 82.626C51.8665 81.7761 51.0424 80.9924 49.6114 80.2748C48.6888 79.8077 47.68 79.483 46.6299 79.3152C45.6154 79.146 44.5772 79.1113 43.5507 79.2125C42.2923 79.3581 41.044 79.5638 39.8116 79.8286H39.7831L39.7179 79.9242L39.5346 79.8782C38.6723 80.0716 37.7917 80.1972 36.9034 80.2535C36.3309 80.2617 35.767 80.1317 35.2742 79.8782L35.1683 79.8145C34.9847 79.734 34.8238 79.6193 34.6971 79.4785C34.5703 79.3377 34.4809 79.1743 34.4352 79C34.3863 78.6707 34.6103 78.3768 35.1113 78.1254C36.1106 77.625 37.6447 77.6533 39.7139 78.2104L41.0009 76.401C38.0955 75.5299 35.5159 75.524 33.2621 76.3833L31.3682 75.4343L29.5801 76.3302L31.4741 77.2791C31.0025 77.5801 30.6223 77.9763 30.3662 78.4335C30.275 78.6171 30.2252 78.8143 30.2195 79.0142C30.2162 79.2152 30.2577 79.4148 30.3417 79.602C30.692 80.3916 31.4659 81.0857 32.6634 81.6912C33.5697 82.1458 34.5566 82.4665 35.5838 82.6401C36.5526 82.8097 37.5447 82.855 38.5286 82.7747C39.6919 82.6516 40.8444 82.4611 41.9785 82.2046C43.0263 81.9546 44.0977 81.7863 45.1799 81.7018C45.7945 81.6903 46.4003 81.8303 46.9272 82.1054C47.1497 82.1915 47.3471 82.3199 47.505 82.481C47.6629 82.6422 47.7773 82.8321 47.8396 83.0367C47.8966 83.3448 47.6685 83.6493 47.1553 83.9467C47.0861 83.9892 47.0128 84.0282 46.9354 84.0671C45.5071 84.7753 43.7706 84.7493 41.726 83.9892L39.8075 85.7845C43.2045 86.9364 46.2022 86.9966 48.8009 85.965L51.2447 87.1902L51.318 87.1548L52.5807 86.521L53.0246 86.2979L51.8027 85.6782L50.5726 85.0763Z" fill="#72AA8B"/>
<path d="M-5.59547 72.8707C-4.57943 71.5802 -3.37455 70.4102 -2.01117 69.39C0.549654 67.4768 3.45435 65.9421 6.58706 64.847C12.0694 62.8924 17.5517 62.3683 21.7511 63.1261C24.8914 63.6926 27.3149 64.9709 28.4838 66.9078C28.425 66.7336 28.3556 66.5622 28.2761 66.3944C27.2375 64.1884 24.6755 62.7437 21.2827 62.1452C17.0793 61.3875 11.601 61.9115 6.11866 63.8626C0.636318 65.8136 -3.6852 68.7916 -6.06794 71.8934C-7.99043 74.4004 -8.64619 76.9923 -7.60756 79.1983C-7.5261 79.3683 -7.43649 79.5312 -7.33874 79.6905C-8.06374 77.5801 -7.37132 75.19 -5.59547 72.8707Z" fill="#539074"/>
<path d="M14.5537 81.7268C4.98605 85.1367 -4.58972 84.2055 -7.33496 79.6731C-7.27925 79.8442 -7.21123 80.0122 -7.13131 80.1759C-4.80559 85.1155 5.11639 86.2521 15.0261 82.7218C24.9359 79.1915 31.0781 72.3221 28.7483 67.386C28.6709 67.2196 28.5813 67.0603 28.4876 66.9045C30.182 71.7945 24.1254 78.3133 14.5537 81.7268Z" fill="#FEA400"/>
<path d="M15.9072 84.5913C2.82452 89.2547 -10.2744 87.7498 -13.3496 81.231L-11.533 85.0835C-8.45786 91.6024 4.64111 93.1073 17.7238 88.4439C30.8065 83.7805 38.9241 74.7121 35.8489 68.1933L34.0323 64.3408C37.1034 70.8596 28.9899 79.9244 15.9072 84.5913Z" fill="#539074"/>
<path d="M21.7555 63.1227C17.5562 62.365 12.0738 62.889 6.59146 64.8436C3.45875 65.9388 0.554056 67.4735 -2.00677 69.3867C-3.37014 70.4068 -4.57503 71.5769 -5.59107 72.8674C-7.36692 75.1867 -8.05934 77.5768 -7.33026 79.6695C-4.58909 84.1877 4.99075 85.1332 14.5584 81.7233C24.126 78.3133 30.1867 71.8087 28.4923 66.9009C27.3193 64.9676 24.8958 63.6893 21.7555 63.1227ZM1.10912 68.9051L1.08061 68.9263L1.10912 68.9051ZM9.62182 74.8822L9.69106 74.8432L9.62182 74.8822ZM14.815 77.3608L15.0919 77.29L15.3689 77.2192C15.1938 77.2404 15.0064 77.29 14.8191 77.3325L14.815 77.3608ZM21.393 71.8901C21.3991 71.8111 21.3991 71.7318 21.393 71.6529C21.3991 71.7224 21.4004 71.7921 21.397 71.8618L21.393 71.8901ZM21.3563 71.5006C21.3586 71.4735 21.3586 71.4463 21.3563 71.4191C21.3586 71.4368 21.36 71.4545 21.3604 71.4723L21.3563 71.5006ZM21.3237 71.3519C21.3027 71.2782 21.2755 71.206 21.2423 71.1359C21.2763 71.2025 21.3049 71.2711 21.3278 71.3412L21.3237 71.3519Z" fill="#F5F5F5"/>
<path d="M21.0672 73.6108C21.7311 72.6654 21.9062 71.8652 21.613 71.2101C21.5558 71.0857 21.4834 70.967 21.3971 70.856C20.8242 70.1478 19.719 69.6934 18.0816 69.4927C17.0293 69.3624 15.9591 69.3888 14.9169 69.5706C13.9042 69.7465 12.9288 70.057 12.025 70.4913C10.9145 71.0432 9.8403 71.6485 8.80728 72.3042H8.78284V72.4105L8.59548 72.4282C7.88083 72.8919 7.12026 73.2995 6.32271 73.6462C5.79821 73.842 5.2214 73.907 4.65683 73.8339L4.53056 73.8091C4.32956 73.7959 4.1343 73.7447 3.95843 73.6591C3.78255 73.5735 3.6303 73.4555 3.5123 73.3134C3.32086 73.023 3.40232 72.6796 3.75261 72.283C4.46132 71.4875 5.89368 71.0071 8.04969 70.8418L8.45699 68.7421C5.38862 68.8955 2.99638 69.7418 1.28026 71.2809L-0.882538 71.026L-2.14111 72.4423L0.0257549 72.6973C-0.27981 73.1312 -0.458783 73.6235 -0.495597 74.1314C-0.498832 74.3308 -0.458758 74.529 -0.377477 74.7156C-0.30292 74.9074 -0.185234 75.0843 -0.0312676 75.2361C0.636714 75.8522 1.65634 76.2406 3.0276 76.4011C4.06422 76.5247 5.11729 76.4972 6.14349 76.3197C7.11409 76.1577 8.05162 75.8713 8.9254 75.4698C9.95048 74.9736 10.9357 74.4176 11.8743 73.8056C12.7345 73.2298 13.6519 72.7214 14.6155 72.2865C15.1774 72.0732 15.7972 72.002 16.4035 72.0812C16.6478 72.0872 16.8874 72.1409 17.1046 72.2384C17.3217 72.3359 17.5109 72.4745 17.658 72.6442C17.8454 72.9097 17.768 73.2674 17.4218 73.7064L17.2711 73.887C16.2447 75.0225 14.6277 75.5702 12.4201 75.53L11.4222 77.8245C15.0662 77.7679 17.8671 76.8343 19.8249 75.0237L22.619 75.353L22.6679 75.2963L23.5599 74.2942L23.8735 73.9401L22.4643 73.7773L21.0672 73.6108Z" fill="#539074"/>
<path d="M-2.66992 71.3731L-2.16894 72.4389L1.1669 71.8122L-0.934796 73.5791L-0.405299 74.7122L18.5141 71.104L16.8115 73.8766L10.9219 76.7589L11.4229 77.8247L20.1474 74.567L23.8742 73.9403L23.3692 72.8745L20.5017 73.4198L21.5892 71.1571L21.072 70.063L11.9564 70.3746L8.3192 71.2386L8.07074 71.3873L5.55359 73.1825L1.71677 73.0444L5.33365 70.7358L8.42917 68.7422L7.92819 67.6764L0.543724 70.8916L-2.66992 71.3731Z" fill="#539074"/>
<path d="M4.77145 60.9801C-8.29901 65.6471 -16.4248 74.7118 -13.3496 81.2307C-10.2744 87.7495 2.82453 89.2544 15.9072 84.591C28.9899 79.9276 37.0871 70.8593 34.0323 64.3405C30.9572 57.8216 17.8582 56.3167 4.77145 60.9801ZM14.5468 81.7264C4.64111 85.2673 -5.28087 84.1201 -7.61066 79.1805C-8.64929 76.9745 -7.99353 74.3825 -6.07104 71.8756C-3.6883 68.7737 0.633218 65.7993 6.11556 63.8447C11.5979 61.8901 17.0762 61.3661 21.2796 62.1274C24.6724 62.74 27.2344 64.1847 28.273 66.3765C30.611 71.3409 24.4647 78.1926 14.5549 81.7264H14.5468Z" fill="#72AA8B"/>
<path d="M20.5625 72.5449C21.2264 71.5995 21.4056 70.7992 21.1124 70.1442C21.0553 70.019 20.9815 69.9002 20.8924 69.7901C20.3222 69.0819 19.2184 68.6275 17.581 68.4268C16.5233 68.3023 15.4488 68.3358 14.404 68.526C13.3919 68.7036 12.4168 69.014 11.5121 69.4466C10.4097 69.9949 9.34363 70.5967 8.31887 71.2489H8.29443L8.27406 71.3552L8.0867 71.3764C7.37056 71.8372 6.61017 72.2435 5.81393 72.591C5.28943 72.7867 4.71262 72.8517 4.14805 72.7786L4.02179 72.7538C3.81731 72.7405 3.6188 72.6878 3.4406 72.5996C3.26239 72.5114 3.10893 72.39 2.9913 72.2439C2.79579 71.9536 2.87726 71.6101 3.23161 71.2135C3.93489 70.418 5.36725 69.9376 7.52869 69.7724L7.936 67.6726C4.86763 67.826 2.47538 68.6723 0.759264 70.2115L-1.40761 69.9565L-2.66211 71.3729L-0.49524 71.6278C-0.802642 72.0611 -0.981764 72.5538 -1.01659 73.0619C-1.02123 73.2612 -0.982534 73.4594 -0.902547 73.6462C-0.817819 73.8321 -0.691883 74.0017 -0.531898 74.1454C0.132011 74.7616 1.15435 75.151 2.52697 75.3104C3.56359 75.434 4.61666 75.4065 5.64286 75.229C6.61327 75.0664 7.5507 74.78 8.42477 74.3791C9.44903 73.8836 10.4329 73.3276 11.3696 72.7149C12.2279 72.1443 13.1424 71.6407 14.1026 71.21C14.6661 70.9971 15.287 70.9259 15.8948 71.0046C16.1384 71.0112 16.3772 71.0652 16.5936 71.1626C16.81 71.2601 16.9985 71.3985 17.1452 71.5676C17.3366 71.8332 17.2552 72.1908 16.909 72.6299C16.8642 72.6866 16.8153 72.7503 16.7582 72.8105C15.7481 73.9483 14.1311 74.4972 11.9072 74.457L10.9134 76.7515C14.5602 76.6949 17.3611 75.7613 19.3161 73.9507L22.1062 74.28L22.1591 74.2233L23.0634 73.2283L23.377 72.8742L21.9677 72.7113L20.5625 72.5449Z" fill="#72AA8B"/>
<path d="M69.138 70.9232C70.9353 70.8596 72.7345 71 74.49 71.3411C77.7872 71.9755 80.9423 73.076 83.8295 74.5987C88.9249 77.2261 92.7128 80.7245 94.5172 84.0884C95.8776 86.6131 96.1464 89.067 95.0752 91.0393C95.1974 90.8941 95.3155 90.7453 95.4214 90.5895C96.8266 88.5394 96.6434 85.8943 95.1485 83.1536C93.3279 79.7791 89.5603 76.2807 84.473 73.6391C79.3858 70.9976 74.0582 69.7724 69.7734 69.9778C66.3113 70.1442 63.5334 71.2419 62.1282 73.2886C62.0202 73.4442 61.9223 73.605 61.835 73.7701C63.3216 72.0493 65.9365 71.0755 69.138 70.9232Z" fill="#539074"/>
<path d="M73.0764 90.2496C64.1971 85.6464 59.3216 78.4088 61.8347 73.7914C61.7125 73.9366 61.5985 74.0817 61.4926 74.234C58.3441 78.816 63.2481 86.4006 72.441 91.1738C81.6339 95.947 91.6414 96.1028 94.7858 91.5279C94.8917 91.3721 94.9854 91.2163 95.075 91.0534C91.5884 95.1644 81.9557 94.8599 73.0764 90.2496Z" fill="#FEA400"/>
<path d="M71.247 92.9089C59.1093 86.606 52.6331 76.5923 56.7917 70.5408L54.3479 74.1172C50.1933 80.1651 56.6654 90.1788 68.8032 96.4817C80.9409 102.785 94.158 102.993 98.3125 96.942L100.756 93.3692C96.5977 99.4171 83.3888 99.2117 71.247 92.9089Z" fill="#539074"/>
<path d="M94.517 84.0885C92.6922 80.714 88.9247 77.2155 83.8374 74.574C80.9502 73.0513 77.7951 71.9508 74.4979 71.3164C72.7417 70.9801 70.9425 70.8444 69.1459 70.9127C65.9444 71.0649 63.3295 72.021 61.8429 73.7808C59.3298 78.384 64.2052 85.6288 73.0845 90.2391C81.9638 94.8494 91.5966 95.1539 95.0791 91.0393C96.1543 89.0777 95.8774 86.6238 94.517 84.0885ZM76.8277 73.2072H76.791H76.8277ZM76.4204 82.7075L76.4977 82.7323L76.4204 82.7075ZM77.2676 87.7994L77.4997 87.9481L77.7319 88.0968L77.2676 87.7994ZM86.2487 89.0918C86.3236 89.0471 86.3944 88.9973 86.4605 88.9431C86.397 88.9971 86.3289 89.0468 86.2568 89.0918H86.2487ZM86.5867 88.8333L86.6519 88.7731L86.5867 88.8333ZM86.7048 88.72C86.7583 88.6615 86.8073 88.6 86.8515 88.5359C86.8099 88.5998 86.7637 88.6613 86.713 88.72H86.7048Z" fill="#F5F5F5"/>
<path d="M84.4487 89.9133C85.7155 89.8071 86.5586 89.4494 86.9863 88.851C87.0697 88.7397 87.1394 88.621 87.194 88.4969C87.509 87.6683 87.2632 86.6273 86.4568 85.3738C85.9386 84.5619 85.2634 83.8336 84.461 83.2209C83.6908 82.6247 82.8216 82.1329 81.8827 81.7621C80.7145 81.3278 79.5208 80.9472 78.3066 80.6219H78.278L78.1681 80.6715L78.05 80.5475C77.1955 80.3279 76.3654 80.0423 75.5695 79.6942C75.0681 79.4447 74.6574 79.0779 74.3842 78.6354C74.3598 78.6 74.3475 78.5646 74.3272 78.5327C74.2177 78.3814 74.1481 78.2108 74.1234 78.0332C74.0988 77.8557 74.1197 77.6756 74.1846 77.5059C74.3353 77.2014 74.6978 77.0491 75.2762 77.0562C76.4329 77.0751 77.7336 77.7833 79.1782 79.1807L81.3491 78.2034C79.3696 76.1615 77.1566 75.0048 74.71 74.7333L73.6429 73.0726L71.6064 73.0479L72.6735 74.705C72.092 74.7544 71.5329 74.9258 71.0443 75.2043C70.8579 75.321 70.6989 75.4676 70.5759 75.6363C70.4546 75.8073 70.3729 75.9974 70.3356 76.1957C70.1686 77.0278 70.4252 77.9662 71.0972 79.0285C71.6055 79.826 72.2636 80.5441 73.0442 81.153C73.7739 81.7274 74.5975 82.2047 75.488 82.5694C76.5574 82.988 77.6583 83.343 78.7831 83.6317C79.831 83.883 80.8507 84.216 81.8298 84.6267C82.3628 84.8912 82.8002 85.28 83.0924 85.7492C83.2325 85.9225 83.3261 86.121 83.3663 86.33C83.4065 86.5389 83.3922 86.7531 83.3246 86.9566C83.1942 87.2505 82.8154 87.4063 82.2004 87.4346H81.9397C80.2901 87.4134 78.8116 86.6167 77.5164 85.0481L74.7915 85.7315C77.0317 88.2314 79.5706 89.6206 82.4081 89.8991L83.7808 92.0237H83.8663L85.3204 92.0414H85.8336L85.1412 90.9791L84.4487 89.9133Z" fill="#539074"/>
<path d="M72.2704 72.0563L71.5943 73.0477L74.1685 74.9917L71.2807 74.5845L70.5557 75.6362L85.2268 86.6343L81.6548 87.1123L75.4678 84.7434L74.7876 85.7313L83.0192 89.8459L85.8296 92.0625L86.5058 91.0746L84.286 89.4033L87.0231 88.8013L87.7195 87.7851L81.9643 81.6309L78.9869 79.6197L78.7018 79.5383L75.537 78.8619L73.362 76.1106L77.6591 77.2402L81.3493 78.2033L82.0295 77.2119L74.6409 74.0038L72.2704 72.0563Z" fill="#539074"/>
<path d="M86.2976 70.9868C74.1599 64.6839 60.9468 64.4785 56.7923 70.5264C52.6337 76.5779 59.1099 86.5916 71.2476 92.8945C83.3854 99.1973 96.5984 99.4027 100.757 93.3548C104.932 87.3211 98.4394 77.3038 86.2976 70.9868ZM73.0764 90.2494C63.8795 85.4762 58.9796 77.8916 62.128 73.3096C63.5332 71.263 66.3111 70.1653 69.7732 69.9988C74.058 69.7935 79.3856 71.0186 84.4729 73.6602C89.5601 76.3017 93.3277 79.8001 95.1484 83.1746C96.6228 85.9047 96.8265 88.5498 95.4212 90.6106C92.2728 95.1784 82.2693 95.0226 73.0764 90.2494Z" fill="#72AA8B"/>
<path d="M85.129 88.9217C86.3957 88.8155 87.2389 88.4614 87.6665 87.8594C87.7514 87.7431 87.8198 87.6183 87.8702 87.4876C88.1879 86.6614 87.9435 85.6216 87.137 84.3681C86.6186 83.5563 85.9435 82.8281 85.1412 82.2152C84.3696 81.6189 83.4991 81.1271 82.5589 80.7563C81.3931 80.3199 80.2006 79.9392 78.9868 79.6162H78.9583L78.8483 79.6657L78.718 79.5453C77.8636 79.3272 77.0334 79.0427 76.2375 78.6955C75.7404 78.4433 75.3341 78.0754 75.0645 77.6332C75.04 77.5978 75.0278 77.566 75.0074 77.5306C74.8984 77.3797 74.8288 77.2099 74.8034 77.033C74.7781 76.8562 74.7977 76.6767 74.8608 76.5072C75.0115 76.1992 75.3781 76.0504 75.9565 76.0575C77.1091 76.0575 78.4003 76.7657 79.8544 78.1821L82.0294 77.2012C80.0499 75.1617 77.8369 74.005 75.3903 73.7311L74.3232 72.074L72.2866 72.0457L73.3538 73.7063C72.7721 73.7551 72.2128 73.9265 71.7246 74.2056C71.5373 74.3214 71.3781 74.4682 71.2562 74.6376C71.1348 74.81 71.0532 75.0012 71.0158 75.2006C70.8502 76.0339 71.1041 76.9782 71.7775 78.0334C72.2856 78.831 72.9436 79.5492 73.7244 80.1579C74.4549 80.7316 75.2783 81.2088 76.1683 81.5743C77.2394 81.9923 78.3416 82.3472 79.4674 82.6366C80.5154 82.8879 81.535 83.2209 82.5141 83.6316C83.0477 83.8943 83.4842 84.2836 83.7727 84.754C83.9135 84.9271 84.0078 85.1254 84.0487 85.3344C84.0896 85.5434 84.076 85.7577 84.0089 85.9615C83.8759 86.2519 83.5011 86.4112 82.8847 86.4395H82.6241C80.9704 86.4183 79.4946 85.6228 78.1967 84.0529L75.4921 84.7363C77.7323 87.2362 80.2712 88.6243 83.1088 88.9005L84.4814 91.025H84.5629H86.021H86.5301L85.8377 89.945L85.129 88.9217Z" fill="#72AA8B"/>
</g>
</svg>
