<svg width="36" height="36" viewBox="0 0 36 36" fill="none" xmlns="http://www.w3.org/2000/svg">
<path d="M31.05 24.7359C30.2203 23.3016 29.2219 20.5734 29.2219 15.75V14.7516C29.2219 8.52188 24.2297 3.41719 18.0844 3.375H18C16.5245 3.37685 15.0638 3.6693 13.7013 4.23566C12.3388 4.80203 11.1012 5.63121 10.0591 6.67587C9.01706 7.72053 8.19097 8.96021 7.62802 10.3241C7.06507 11.688 6.77627 13.1495 6.77812 14.625V15.75C6.77812 20.5734 5.77968 23.3016 4.95 24.7359C4.74934 25.0778 4.64254 25.4665 4.6404 25.8629C4.63826 26.2592 4.74086 26.6491 4.93782 26.9931C5.13477 27.337 5.41909 27.6228 5.76201 27.8216C6.10492 28.0204 6.49426 28.125 6.89062 28.125H12.375C12.375 29.6168 12.9676 31.0476 14.0225 32.1025C15.0774 33.1574 16.5082 33.75 18 33.75C19.4918 33.75 20.9226 33.1574 21.9775 32.1025C23.0324 31.0476 23.625 29.6168 23.625 28.125H29.1094C29.5057 28.1275 29.8955 28.0247 30.2389 27.827C30.5824 27.6293 30.8672 27.3439 31.0641 27C31.2593 26.6541 31.3607 26.2632 31.3582 25.8661C31.3557 25.469 31.2495 25.0794 31.05 24.7359ZM18 31.5C17.106 31.4963 16.2497 31.1395 15.6176 30.5074C14.9855 29.8753 14.6287 29.019 14.625 28.125H21.375C21.3713 29.019 21.0145 29.8753 20.3824 30.5074C19.7503 31.1395 18.894 31.4963 18 31.5Z" fill="#035946"/>
</svg>
