<svg width="175" height="163" viewBox="0 0 175 163" fill="none" xmlns="http://www.w3.org/2000/svg">
<path d="M-4.12036 93.6471C-4.35804 94.4586 -4.43066 95.3095 -4.33395 96.1495C-4.23724 96.9896 -3.97314 97.8017 -3.55727 98.538C-3.1414 99.2742 -2.5822 99.9197 -1.91269 100.436C-1.24317 100.953 -0.476922 101.33 0.340779 101.545C37.7493 111.236 71.8222 130.908 98.9188 158.459C99.5142 159.06 100.224 159.535 101.006 159.856C101.788 160.178 102.627 160.339 103.472 160.331C104.318 160.323 105.153 160.146 105.929 159.81C106.705 159.474 107.405 158.985 107.989 158.374L167.547 95.0607C168.35 94.2167 168.901 93.165 169.138 92.0243C169.375 90.8836 169.289 89.6994 168.889 88.6052C168.489 87.511 167.79 86.5505 166.873 85.8321C165.956 85.1136 164.856 84.6658 163.698 84.5393L120.674 79.9967C119.118 79.8267 117.681 79.0863 116.639 77.9184C115.597 76.7504 115.025 75.2379 115.033 73.6729L115.845 26.3297C115.865 25.2134 115.586 24.1121 115.037 23.1402C114.488 22.1683 113.688 21.3613 112.721 20.803C111.754 20.2448 110.655 19.9558 109.539 19.966C108.423 19.9761 107.329 20.2852 106.373 20.8609L65.7782 45.2354C64.427 46.025 62.8311 46.2859 61.2988 45.9677C59.7664 45.6495 58.4064 44.7747 57.4813 43.5124L32.0353 8.52364C31.3466 7.58392 30.4089 6.85542 29.3281 6.42034C28.2474 5.98527 27.0665 5.86095 25.9188 6.06141C24.7711 6.26188 23.7023 6.77916 22.833 7.55485C21.9637 8.33055 21.3285 9.33378 20.9991 10.4513L-4.12036 93.6471Z" stroke="#035946" stroke-width="10" stroke-linecap="round" stroke-linejoin="round"/>
</svg>
