<svg width="187" height="179" viewBox="0 0 187 179" fill="none" xmlns="http://www.w3.org/2000/svg">
<g opacity="0.15">
<path d="M-12.6735 114.87L109.521 185.419" stroke="#035946" stroke-width="10" stroke-linecap="round" stroke-linejoin="round"/>
<path d="M57.1521 155.184L112.584 59.1736C113.252 58.0162 113.433 56.6407 113.087 55.3498C112.741 54.0588 111.897 52.9582 110.739 52.2899L58.37 22.0545C57.2125 21.3863 55.837 21.2052 54.5461 21.5511C53.2551 21.897 52.1545 22.7416 51.4862 23.899L-3.9453 119.909" stroke="#035946" stroke-width="10" stroke-linecap="round" stroke-linejoin="round"/>
<path d="M100.793 180.38L136.068 119.283C136.736 118.125 136.917 116.75 136.571 115.459C136.225 114.168 135.381 113.067 134.223 112.399L94.9464 89.7223" stroke="#035946" stroke-width="10" stroke-linecap="round" stroke-linejoin="round"/>
<path d="M58.8642 51.4338L76.3206 61.5123" stroke="#035946" stroke-width="10" stroke-linecap="round" stroke-linejoin="round"/>
<path d="M47.4355 91.3859L64.8919 101.464" stroke="#035946" stroke-width="10" stroke-linecap="round" stroke-linejoin="round"/>
<path d="M26.1092 108.167L43.5656 118.246" stroke="#035946" stroke-width="10" stroke-linecap="round" stroke-linejoin="round"/>
<path d="M87.2066 143.442L95.9348 148.481" stroke="#035946" stroke-width="10" stroke-linecap="round" stroke-linejoin="round"/>
<path d="M99.8047 121.621L108.533 126.66" stroke="#035946" stroke-width="10" stroke-linecap="round" stroke-linejoin="round"/>
</g>
</svg>
